<svg xmlns="http://www.w3.org/2000/svg" width="48" height="48" viewBox="0 0 48 48" fill="none"><rect width="48" height="48" fill="#fff" rx="6.85"/><path fill="#4995FF" d="M0 41.143A6.857 6.857 0 0 0 6.857 48h34.286A6.857 6.857 0 0 0 48 41.143V24H0v17.143Z" style="mix-blend-mode:multiply"/><path fill="#fff" d="M41.143 0A6.857 6.857 0 0 1 48 6.857V24H24V0h17.143Z" style="mix-blend-mode:multiply"/><path fill="#4995FF" d="M6.857 0A6.857 6.857 0 0 0 0 6.857v34.286A6.857 6.857 0 0 0 6.857 48H24V0H6.857Z" style="mix-blend-mode:multiply"/><path fill="#1557FF" d="M34.286 3.429h3.429v17.143h-3.429z"/><path fill="#1557FF" d="M27.428 13.714v-3.43h17.143v3.43z"/></svg>
